<?xml version="1.0" encoding="utf-8"?>
<!-- Generator: Adobe Illustrator 16.0.0, SVG Export Plug-In . SVG Version: 6.00 Build 0)  -->
<!DOCTYPE svg PUBLIC "-//W3C//DTD SVG 1.1//EN" "http://www.w3.org/Graphics/SVG/1.1/DTD/svg11.dtd">
<svg version="1.1" xmlns="http://www.w3.org/2000/svg" xmlns:xlink="http://www.w3.org/1999/xlink" x="0px" y="0px" width="1307px"
	 height="138px" viewBox="0 0 1307 138" style="enable-background:new 0 0 1307 138;" xml:space="preserve">
<g id="Layer_1">
	<g>
		<defs>
			<rect id="SVGID_1_" x="-123" y="-158" width="691.417" height="448"/>
		</defs>
		<clipPath id="SVGID_2_">
			<use xlink:href="#SVGID_1_"  style="overflow:visible;"/>
		</clipPath>
		<polygon style="clip-path:url(#SVGID_2_);fill:#FFC107;" points="64.09,105.54 53.46,87.15 27.94,131.27 49.79,131.27 
			64.38,106.04 		"/>
		<polygon style="clip-path:url(#SVGID_2_);fill:#0F9D58;" points="41.96,67.27 53.46,87.15 27.94,131.27 4.94,131.27 		"/>
		<g style="clip-path:url(#SVGID_2_);">
			<defs>
				<rect id="SVGID_3_" x="-123" y="-158" width="691.417" height="448"/>
			</defs>
			<clipPath id="SVGID_4_">
				<use xlink:href="#SVGID_3_"  style="overflow:visible;"/>
			</clipPath>
			<g style="opacity:0.2;clip-path:url(#SVGID_4_);enable-background:new    ;">
				<g>
					<defs>
						<rect id="SVGID_5_" x="27.94" y="105.54" width="36.44" height="25.729"/>
					</defs>
					<clipPath id="SVGID_6_">
						<use xlink:href="#SVGID_5_"  style="overflow:visible;"/>
					</clipPath>
					<polygon style="clip-path:url(#SVGID_6_);fill:#BF360C;" points="49.79,130.27 28.52,130.27 27.94,131.27 49.79,131.27 
						64.38,106.04 64.09,105.54 					"/>
				</g>
			</g>
			<g style="opacity:0.2;clip-path:url(#SVGID_4_);enable-background:new    ;">
				<g>
					<defs>
						<rect id="SVGID_7_" x="4.94" y="130.27" width="23.58" height="1"/>
					</defs>
					<clipPath id="SVGID_8_">
						<use xlink:href="#SVGID_7_"  style="overflow:visible;"/>
					</clipPath>
					<polygon style="clip-path:url(#SVGID_8_);fill:#263238;" points="5.52,130.27 4.94,131.27 27.94,131.27 28.52,130.27 					"/>
				</g>
			</g>
			<g style="opacity:0.2;clip-path:url(#SVGID_4_);enable-background:new    ;">
				<g>
					<defs>
						<rect id="SVGID_9_" x="4.94" y="67.27" width="37.31" height="64"/>
					</defs>
					<clipPath id="SVGID_10_">
						<use xlink:href="#SVGID_9_"  style="overflow:visible;"/>
					</clipPath>
					<polygon style="clip-path:url(#SVGID_10_);fill:#FFFFFF;" points="4.94,131.27 5.52,131.27 42.25,67.77 41.96,67.27 					"/>
				</g>
			</g>
		</g>
		<g style="clip-path:url(#SVGID_2_);">
			<defs>
				<polygon id="SVGID_11_" points="64.38,106.04 64.38,106.04 53.46,87.15 50.78,91.78 				"/>
			</defs>
			<clipPath id="SVGID_12_">
				<use xlink:href="#SVGID_11_"  style="overflow:visible;"/>
			</clipPath>
			<defs>
				<filter id="Adobe_OpacityMaskFilter" filterUnits="userSpaceOnUse" x="50.78" y="87.15" width="13.6" height="18.89">
					<feColorMatrix  type="matrix" values="1 0 0 0 0  0 1 0 0 0  0 0 1 0 0  0 0 0 1 0"/>
				</filter>
			</defs>
			<mask maskUnits="userSpaceOnUse" x="50.78" y="87.15" width="13.6" height="18.89" id="SVGID_13_">
				<g style="filter:url(#Adobe_OpacityMaskFilter);">
					
						<radialGradient id="SVGID_14_" cx="-123.0005" cy="289.998" r="1.0868" gradientTransform="matrix(44.2635 0 0 44.2635 5508.6606 -12730.7275)" gradientUnits="userSpaceOnUse">
						<stop  offset="0" style="stop-color:#333333"/>
						<stop  offset="1" style="stop-color:#050505"/>
					</radialGradient>
					<rect x="50.78" y="87.15" style="clip-path:url(#SVGID_12_);fill:url(#SVGID_14_);" width="13.6" height="18.89"/>
				</g>
			</mask>
			
				<radialGradient id="SVGID_15_" cx="-123" cy="290" r="1" gradientTransform="matrix(44.2635 0 0 44.2635 5508.6294 -12730.7588)" gradientUnits="userSpaceOnUse">
				<stop  offset="0" style="stop-color:#BF360C"/>
				<stop  offset="1" style="stop-color:#BF360C"/>
			</radialGradient>
			
				<rect x="50.78" y="87.15" style="clip-path:url(#SVGID_12_);mask:url(#SVGID_13_);fill:url(#SVGID_15_);" width="13.6" height="18.89"/>
		</g>
		<g style="clip-path:url(#SVGID_2_);">
			<defs>
				<polygon id="SVGID_16_" points="50.78,91.78 53.46,87.15 41.96,67.27 36.47,76.77 				"/>
			</defs>
			<clipPath id="SVGID_17_">
				<use xlink:href="#SVGID_16_"  style="overflow:visible;"/>
			</clipPath>
			<defs>
				<filter id="Adobe_OpacityMaskFilter_1_" filterUnits="userSpaceOnUse" x="36.47" y="67.27" width="16.99" height="24.511">
					<feColorMatrix  type="matrix" values="1 0 0 0 0  0 1 0 0 0  0 0 1 0 0  0 0 0 1 0"/>
				</filter>
			</defs>
			<mask maskUnits="userSpaceOnUse" x="36.47" y="67.27" width="16.99" height="24.511" id="SVGID_18_">
				<g style="filter:url(#Adobe_OpacityMaskFilter_1_);">
					
						<radialGradient id="SVGID_19_" cx="-123.0005" cy="289.998" r="0.998" gradientTransform="matrix(44.6228 0 0 44.6228 5552.7295 -12834.6426)" gradientUnits="userSpaceOnUse">
						<stop  offset="0" style="stop-color:#333333"/>
						<stop  offset="1" style="stop-color:#050505"/>
					</radialGradient>
					<rect x="36.47" y="67.271" style="clip-path:url(#SVGID_17_);fill:url(#SVGID_19_);" width="16.99" height="24.51"/>
				</g>
			</mask>
			
				<radialGradient id="SVGID_20_" cx="-123" cy="290" r="1" gradientTransform="matrix(44.6228 0 0 44.6228 5552.6982 -12834.6738)" gradientUnits="userSpaceOnUse">
				<stop  offset="0" style="stop-color:#263238"/>
				<stop  offset="1" style="stop-color:#263238"/>
			</radialGradient>
			
				<rect x="36.47" y="67.27" style="clip-path:url(#SVGID_17_);mask:url(#SVGID_18_);fill:url(#SVGID_20_);" width="16.99" height="24.511"/>
		</g>
		<polygon style="clip-path:url(#SVGID_2_);fill:#4285F4;" points="27.94,3.27 4.94,3.27 64.38,106.04 75.87,86.17 75.88,86.15 		
			"/>
		<g style="clip-path:url(#SVGID_2_);">
			<defs>
				<rect id="SVGID_21_" x="-123" y="-158" width="691.417" height="448"/>
			</defs>
			<clipPath id="SVGID_22_">
				<use xlink:href="#SVGID_21_"  style="overflow:visible;"/>
			</clipPath>
			<path style="clip-path:url(#SVGID_22_);fill:#DB4437;" d="M83.33,73.27c2.15-3.71,2.15-8.29,0-12l-33.54-58H27.94l47.94,82.88
				L83.33,73.27z"/>
			<g style="opacity:0.2;clip-path:url(#SVGID_22_);enable-background:new    ;">
				<g>
					<defs>
						<rect id="SVGID_23_" x="4.94" y="3.27" width="70.94" height="102.77"/>
					</defs>
					<clipPath id="SVGID_24_">
						<use xlink:href="#SVGID_23_"  style="overflow:visible;"/>
					</clipPath>
					<polygon style="clip-path:url(#SVGID_24_);fill:#1A237E;" points="75.88,86.15 75.59,85.66 64.38,105.04 5.52,3.27 4.94,3.27 
						64.38,106.04 75.87,86.17 					"/>
				</g>
			</g>
			<g style="opacity:0.2;clip-path:url(#SVGID_22_);enable-background:new    ;">
				<g>
					<defs>
						<rect id="SVGID_25_" x="4.94" y="3.27" width="79.98" height="64.5"/>
					</defs>
					<clipPath id="SVGID_26_">
						<use xlink:href="#SVGID_25_"  style="overflow:visible;"/>
					</clipPath>
					<path style="clip-path:url(#SVGID_26_);fill:#FFFFFF;" d="M49.79,4.27l33.54,58c0.99,1.71,1.5,3.6,1.58,5.5
						c0.09-2.24-0.42-4.5-1.58-6.5l-33.54-58H4.94l0.58,1H49.79z"/>
				</g>
			</g>
			<g style="opacity:0.2;clip-path:url(#SVGID_22_);enable-background:new    ;">
				<g>
					<defs>
						<rect id="SVGID_27_" x="75.59" y="66.77" width="9.33" height="19.381"/>
					</defs>
					<clipPath id="SVGID_28_">
						<use xlink:href="#SVGID_27_"  style="overflow:visible;"/>
					</clipPath>
					<path style="clip-path:url(#SVGID_28_);fill:#3E2723;" d="M75.88,86.15l7.45-12.881c1.16-2,1.67-4.26,1.58-6.5
						c-0.08,1.9-0.59,3.79-1.58,5.5L75.59,85.66L75.88,86.15z"/>
				</g>
			</g>
		</g>
		<g style="clip-path:url(#SVGID_2_);">
			<defs>
				<path id="SVGID_29_" d="M4.94,3.27l37.02,64l-37.02,64h44.85l33.54-58c2.15-3.71,2.15-8.29,0-12l-33.54-58H4.94z"/>
			</defs>
			<clipPath id="SVGID_30_">
				<use xlink:href="#SVGID_29_"  style="overflow:visible;"/>
			</clipPath>
			<defs>
				<filter id="Adobe_OpacityMaskFilter_2_" filterUnits="userSpaceOnUse" x="4.94" y="3.27" width="80.54" height="128">
					<feColorMatrix  type="matrix" values="1 0 0 0 0  0 1 0 0 0  0 0 1 0 0  0 0 0 1 0"/>
				</filter>
			</defs>
			<mask maskUnits="userSpaceOnUse" x="4.94" y="3.27" width="80.54" height="128" id="SVGID_31_">
				<g style="filter:url(#Adobe_OpacityMaskFilter_2_);">
					
						<radialGradient id="SVGID_32_" cx="-122.9995" cy="290" r="1" gradientTransform="matrix(134.3503 0 0 134.3503 16528.9609 -38957.3359)" gradientUnits="userSpaceOnUse">
						<stop  offset="0" style="stop-color:#1A1A1A"/>
						<stop  offset="1" style="stop-color:#000000"/>
					</radialGradient>
					<rect x="4.94" y="3.27" style="clip-path:url(#SVGID_30_);fill:url(#SVGID_32_);" width="80.54" height="128"/>
				</g>
			</mask>
			
				<radialGradient id="SVGID_33_" cx="-122.9995" cy="290" r="1" gradientTransform="matrix(134.3503 0 0 134.3503 16528.9609 -38957.3359)" gradientUnits="userSpaceOnUse">
				<stop  offset="0" style="stop-color:#FFFFFF"/>
				<stop  offset="1" style="stop-color:#FFFFFF"/>
			</radialGradient>
			
				<rect x="4.94" y="3.27" style="clip-path:url(#SVGID_30_);mask:url(#SVGID_31_);fill:url(#SVGID_33_);" width="80.54" height="128"/>
		</g>
		<g style="clip-path:url(#SVGID_2_);">
			<defs>
				<rect id="SVGID_34_" x="-123" y="-158" width="691.417" height="448"/>
			</defs>
			<clipPath id="SVGID_35_">
				<use xlink:href="#SVGID_34_"  style="overflow:visible;"/>
			</clipPath>
			<g style="opacity:0.54;clip-path:url(#SVGID_35_);">
				<g>
					<defs>
						<rect id="SVGID_36_" x="132.402" y="11.847" width="308.015" height="108.44"/>
					</defs>
					<clipPath id="SVGID_37_">
						<use xlink:href="#SVGID_36_"  style="overflow:visible;"/>
					</clipPath>
					<path style="clip-path:url(#SVGID_37_);" d="M247.397,14.447h30.6c31.16,0,50.72,20.68,50.72,49.7
						c0,29.15-19.569,49.7-50.72,49.7h-30.6V14.447z M278.527,98.787c21.689,0,35.13-12.04,35.13-34.641
						c0-22.47-13.44-34.64-35.13-34.64h-16.07v69.28H278.527z"/>
					<path style="clip-path:url(#SVGID_37_);" d="M234.827,59.637h-47.67v14.76h33.61c-1.11,7.53-3.72,13.4-7.63,17.32
						c-4.98,4.979-12.76,10.46-26.41,10.46c-21.05,0-37.51-16.97-37.51-38.02c0-21.05,16.46-38.02,37.51-38.02
						c11.35,0,19.65,4.47,25.77,10.21l10.08-10.08c-8.55-8.17-19.9-14.42-35.85-14.42c-28.83,0-53.07,23.47-53.07,52.31
						c0,28.83,24.24,52.31,53.07,52.31c15.56,0,27.3-5.1,36.49-14.67c9.44-9.44,12.38-22.71,12.38-33.43
						C235.597,65.047,235.337,62.187,234.827,59.637"/>
					<path style="clip-path:url(#SVGID_37_);" d="M439.646,59.637h-47.67v14.76h33.61c-1.11,7.53-3.72,13.4-7.63,17.32
						c-4.98,4.979-12.76,10.46-26.41,10.46c-21.05,0-37.51-16.97-37.51-38.02c0-21.05,16.46-38.02,37.51-38.02
						c11.35,0,19.65,4.47,25.771,10.21l10.079-10.08c-8.55-8.17-19.899-14.42-35.85-14.42c-28.83,0-53.07,23.47-53.07,52.31
						c0,28.83,24.24,52.31,53.07,52.31c15.561,0,27.3-5.1,36.49-14.67c9.439-9.44,12.38-22.71,12.38-33.43
						C440.417,65.047,440.157,62.187,439.646,59.637"/>
				</g>
			</g>
		</g>
	</g>
</g>
<g id="Layer_2">
	<g>
		<path style="opacity:0.55;" d="M571.974,16.408v0.548l-36.441,42.059l38.908,54.937v0.548h-15.481l-31.921-45.758l-15.07,17.398
			V114.5h-12.604V16.408h12.604v50.553h0.548l43.155-50.553H571.974z"/>
		<path style="opacity:0.55;" d="M638.557,114.5h-12.056v-9.316h-0.549c-1.918,3.199-4.842,5.915-8.768,8.152
			c-3.928,2.236-8.083,3.356-12.467,3.356c-8.404,0-14.774-2.557-19.111-7.673c-4.34-5.113-6.508-11.963-6.508-20.549V47.37h12.604
			v39.045c0,12.515,5.525,18.769,16.577,18.769c5.206,0,9.453-2.1,12.741-6.302c3.288-4.2,4.932-9.042,4.932-14.522V47.37h12.604
			V114.5z"/>
		<path style="opacity:0.55;" d="M674.451,116.692c-7.124,0-13.084-2.056-17.879-6.165c-4.795-4.11-7.192-9.543-7.192-16.303
			c0-7.307,2.83-13.037,8.494-17.194c5.662-4.155,12.648-6.233,20.961-6.233c7.398,0,13.471,1.37,18.221,4.11v-1.919
			c0-4.932-1.69-8.881-5.068-11.85c-3.381-2.967-7.535-4.453-12.468-4.453c-3.653,0-6.965,0.869-9.932,2.603
			c-2.97,1.736-5.001,4.11-6.097,7.124l-11.508-4.932c1.552-4.018,4.61-7.74,9.179-11.166c4.565-3.425,10.594-5.137,18.084-5.137
			c8.584,0,15.708,2.513,21.372,7.535c5.662,5.024,8.494,12.103,8.494,21.235V114.5h-12.057v-9.316h-0.548
			C691.484,112.856,684.131,116.692,674.451,116.692z M676.506,105.184c5.206,0,9.933-1.939,14.18-5.822
			c4.247-3.881,6.37-8.471,6.37-13.769c-3.562-2.922-8.904-4.384-16.028-4.384c-6.12,0-10.733,1.325-13.837,3.973
			c-3.106,2.65-4.658,5.754-4.658,9.316c0,3.288,1.415,5.891,4.247,7.809C669.608,104.225,672.852,105.184,676.506,105.184z"/>
		<path style="opacity:0.55;" d="M735.964,114.5h-12.604V16.408h12.604V114.5z"/>
		<path style="opacity:0.55;" d="M771.858,116.692c-7.124,0-13.084-2.056-17.879-6.165c-4.795-4.11-7.192-9.543-7.192-16.303
			c0-7.307,2.83-13.037,8.494-17.194c5.662-4.155,12.648-6.233,20.961-6.233c7.398,0,13.471,1.37,18.221,4.11v-1.919
			c0-4.932-1.69-8.881-5.068-11.85c-3.381-2.967-7.535-4.453-12.468-4.453c-3.653,0-6.965,0.869-9.932,2.603
			c-2.97,1.736-5.001,4.11-6.097,7.124l-11.508-4.932c1.552-4.018,4.61-7.74,9.179-11.166c4.565-3.425,10.594-5.137,18.084-5.137
			c8.584,0,15.708,2.513,21.372,7.535c5.662,5.024,8.494,12.103,8.494,21.235V114.5h-12.057v-9.316h-0.548
			C788.892,112.856,781.538,116.692,771.858,116.692z M773.913,105.184c5.206,0,9.933-1.939,14.18-5.822
			c4.247-3.881,6.37-8.471,6.37-13.769c-3.562-2.922-8.904-4.384-16.028-4.384c-6.12,0-10.733,1.325-13.837,3.973
			c-3.106,2.65-4.658,5.754-4.658,9.316c0,3.288,1.415,5.891,4.247,7.809C767.016,104.225,770.259,105.184,773.913,105.184z"/>
		<path style="opacity:0.55;" d="M853.097,114.5V16.408H865.7v86.035h42.471V114.5H853.097z"/>
		<path style="opacity:0.55;" d="M976.669,114.5h-12.056v-9.316h-0.549c-1.918,3.199-4.842,5.915-8.768,8.152
			c-3.928,2.236-8.083,3.356-12.467,3.356c-8.404,0-14.774-2.557-19.111-7.673c-4.34-5.113-6.508-11.963-6.508-20.549V47.37h12.604
			v39.045c0,12.515,5.525,18.769,16.577,18.769c5.206,0,9.453-2.1,12.741-6.302c3.288-4.2,4.932-9.042,4.932-14.522V47.37h12.604
			V114.5z"/>
		<path style="opacity:0.55;" d="M992.012,114.5V47.37h12.056v9.316h0.549c1.918-3.196,4.863-5.913,8.836-8.151
			c3.974-2.237,7.923-3.356,11.851-3.356c10.412,0,17.489,4.294,21.235,12.878c5.479-8.584,13.289-12.878,23.427-12.878
			c7.946,0,13.927,2.534,17.947,7.604c4.018,5.069,6.027,11.942,6.027,20.619v41.1h-12.604V75.318
			c0-6.758-1.233-11.553-3.699-14.385c-2.466-2.83-6.212-4.247-11.233-4.247c-4.933,0-9.021,2.102-12.262,6.302
			c-3.243,4.202-4.863,8.997-4.863,14.385V114.5h-12.604V75.318c0-6.758-1.233-11.553-3.699-14.385
			c-2.466-2.83-6.212-4.247-11.233-4.247c-4.933,0-9.021,2.102-12.262,6.302c-3.243,4.202-4.863,8.997-4.863,14.385V114.5H992.012z"
			/>
		<path style="opacity:0.55;" d="M1143.67,116.692c-5.116,0-9.706-1.097-13.769-3.288c-4.065-2.192-7.103-4.932-9.111-8.221h-0.548
			l0.548,9.316v29.592h-12.604V47.37h12.056v9.316h0.548c2.009-3.288,5.046-6.028,9.111-8.22c4.063-2.192,8.652-3.288,13.769-3.288
			c8.676,0,16.166,3.425,22.468,10.275s9.453,15.344,9.453,25.482c0,10.138-3.151,18.631-9.453,25.481
			C1159.836,113.267,1152.346,116.692,1143.67,116.692z M1141.614,105.184c5.844,0,10.868-2.213,15.07-6.645
			c4.2-4.429,6.302-10.296,6.302-17.604c0-7.307-2.102-13.174-6.302-17.605c-4.202-4.429-9.227-6.645-15.07-6.645
			c-5.938,0-10.983,2.192-15.139,6.576c-4.156,4.384-6.233,10.275-6.233,17.673c0,7.397,2.077,13.289,6.233,17.672
			C1130.631,102.992,1135.677,105.184,1141.614,105.184z"/>
		<path style="opacity:0.55;" d="M1245.323,114.5h-12.056v-9.316h-0.549c-1.918,3.199-4.842,5.915-8.768,8.152
			c-3.928,2.236-8.083,3.356-12.467,3.356c-8.404,0-14.774-2.557-19.111-7.673c-4.34-5.113-6.508-11.963-6.508-20.549V47.37h12.604
			v39.045c0,12.515,5.525,18.769,16.577,18.769c5.206,0,9.453-2.1,12.741-6.302c3.288-4.2,4.932-9.042,4.932-14.522V47.37h12.604
			V114.5z"/>
		<path style="opacity:0.55;" d="M1273.271,114.5h-12.604V47.37h12.056v10.96h0.549c1.277-3.652,3.904-6.666,7.877-9.042
			c3.974-2.374,7.831-3.562,11.577-3.562c3.743,0,6.895,0.548,9.452,1.644l-4.795,11.782c-1.644-0.638-3.883-0.959-6.713-0.959
			c-4.568,0-8.609,1.805-12.124,5.412c-3.518,3.608-5.274,8.335-5.274,14.18V114.5z"/>
	</g>
</g>
</svg>
