<?xml version="1.0" encoding="utf-8"?>
<!-- Generator: Adobe Illustrator 16.0.0, SVG Export Plug-In . SVG Version: 6.00 Build 0)  -->
<!DOCTYPE svg PUBLIC "-//W3C//DTD SVG 1.1//EN" "http://www.w3.org/Graphics/SVG/1.1/DTD/svg11.dtd">
<svg version="1.1" id="Layer_1" xmlns="http://www.w3.org/2000/svg" xmlns:xlink="http://www.w3.org/1999/xlink" x="0px" y="0px"
	 width="250.5px" height="72px" viewBox="0 0 250.5 72" style="enable-background:new 0 0 250.5 72;" xml:space="preserve">
<rect x="2" y="11.331" style="fill:#FFFFFF;stroke:#FFFFFF;stroke-miterlimit:10;" width="24.667" height="46.929"/>
<rect x="37.408" y="1.693" transform="matrix(0.9797 0.2006 -0.2006 0.9797 7.8677 -7.0084)" style="fill:#FFFFFF;stroke:#FFFFFF;stroke-miterlimit:10;" width="2.205" height="67.238"/>
<path style="fill:none;stroke:#FFFFFF;stroke-width:3;stroke-miterlimit:10;" d="M71.134,11.737
	c13.076,0,23.658,10.336,23.658,23.11"/>
<path style="fill:none;stroke:#FFFFFF;stroke-width:3;stroke-miterlimit:10;" d="M94.792,34.738
	c0,13.075-10.335,23.657-23.109,23.657"/>
<path style="fill:none;stroke:#FFFFFF;stroke-width:3;stroke-miterlimit:10;" d="M71.634,58.291
	c-13.353,0-24.159-10.555-24.159-23.598"/>
<path style="fill:none;stroke:#FFFFFF;stroke-width:3;stroke-miterlimit:10;" d="M71.134,11.737
	c-13.075,0-23.658,10.336-23.658,23.11"/>
<g>
	<path style="fill:#FFFFFF;stroke:#FFFFFF;stroke-miterlimit:10;" d="M66.831,32.026h-0.024l-1.355,0.731l-0.204-0.804l1.703-0.912
		h0.9v7.795h-1.02V32.026z"/>
	<path style="fill:#FFFFFF;stroke:#FFFFFF;stroke-miterlimit:10;" d="M75.145,31.786c-0.216-0.012-0.492,0-0.792,0.048
		c-1.655,0.276-2.531,1.487-2.71,2.771h0.036c0.372-0.492,1.02-0.899,1.883-0.899c1.379,0,2.351,0.996,2.351,2.519
		c0,1.427-0.972,2.747-2.59,2.747c-1.667,0-2.759-1.296-2.759-3.323c0-1.535,0.552-2.746,1.319-3.514
		c0.647-0.636,1.511-1.032,2.495-1.151c0.312-0.048,0.576-0.06,0.768-0.06V31.786z M74.845,36.284c0-1.115-0.636-1.787-1.607-1.787
		c-0.636,0-1.224,0.396-1.511,0.959c-0.072,0.12-0.12,0.276-0.12,0.468c0.024,1.283,0.612,2.23,1.715,2.23
		C74.233,38.154,74.845,37.399,74.845,36.284z"/>
</g>
<line style="fill:none;stroke:#7A85C1;stroke-width:2;stroke-miterlimit:10;" x1="54.992" y1="17.951" x2="54.992" y2="17.952"/>
<g>
	<path style="fill:#FFFFFF;" d="M119.473,14.392h-11.736v8.172h10.584v3.096h-10.584v8.172h11.736V37h-15.048V11.224h15.048V14.392z
		"/>
	<path style="fill:#FFFFFF;" d="M137.69,37h-3.888l-4.356-6.516L125.162,37h-3.888l6.228-8.964l-6.084-8.676h3.744l4.356,6.228
		l4.14-6.228h3.888l-6.155,8.676L137.69,37z"/>
	<path style="fill:#FFFFFF;" d="M147.625,37.288c-1.848,0-3.258-0.492-4.23-1.476c-0.971-0.984-1.457-2.376-1.457-4.176v-9.252
		h-3.096V19.36h3.096v-5.4h3.313v5.4h4.318v3.024h-4.318v9c0,1.92,0.791,2.88,2.375,2.88c0.6,0,1.104-0.096,1.512-0.288l1.152,2.844
		C149.568,37.132,148.682,37.288,147.625,37.288z"/>
	<path style="fill:#FFFFFF;" d="M160.549,37.576c-2.664,0-4.83-0.888-6.498-2.664c-1.668-1.776-2.502-4.02-2.502-6.732
		c0-2.568,0.811-4.776,2.43-6.624s3.689-2.772,6.211-2.772c2.615,0,4.709,0.852,6.281,2.556c1.572,1.705,2.357,3.984,2.357,6.84
		l-0.035,0.612h-13.932c0.096,1.776,0.689,3.18,1.781,4.212c1.092,1.032,2.369,1.548,3.834,1.548c2.375,0,3.984-1.008,4.824-3.024
		l2.951,1.224c-0.576,1.368-1.523,2.515-2.844,3.438S162.469,37.576,160.549,37.576z M165.301,26.056
		c-0.072-1.008-0.535-1.968-1.387-2.88c-0.852-0.912-2.117-1.368-3.797-1.368c-1.225,0-2.287,0.384-3.188,1.152
		c-0.898,0.769-1.518,1.8-1.854,3.096H165.301z"/>
	<path style="fill:#FFFFFF;" d="M175.02,19.36v2.448h0.145c0.48-0.84,1.236-1.554,2.268-2.142c1.033-0.588,2.137-0.882,3.313-0.882
		c2.184,0,3.852,0.672,5.004,2.016c1.152,1.345,1.729,3.145,1.729,5.4V37h-3.313V26.704c0-3.264-1.451-4.896-4.355-4.896
		c-1.369,0-2.484,0.546-3.348,1.638c-0.865,1.093-1.297,2.358-1.297,3.798V37h-3.313V19.36H175.02z"/>
	<path style="fill:#FFFFFF;" d="M198.744,37.576c-2.281,0-4.248-0.9-5.904-2.7s-2.484-4.032-2.484-6.696s0.828-4.896,2.484-6.696
		c1.656-1.8,3.623-2.7,5.904-2.7c1.344,0,2.551,0.288,3.617,0.864c1.068,0.576,1.867,1.296,2.395,2.16h0.145l-0.145-2.448v-8.136
		h3.313V37H204.9v-2.448h-0.145c-0.527,0.864-1.326,1.584-2.395,2.16C201.295,37.288,200.088,37.576,198.744,37.576z
		 M199.283,34.552c1.561,0,2.887-0.576,3.979-1.728c1.092-1.152,1.639-2.7,1.639-4.644c0-1.944-0.547-3.492-1.639-4.644
		c-1.092-1.152-2.418-1.728-3.979-1.728c-1.535,0-2.855,0.582-3.959,1.746s-1.656,2.706-1.656,4.626c0,1.92,0.553,3.462,1.656,4.626
		S197.748,34.552,199.283,34.552z"/>
	<path style="fill:#FFFFFF;" d="M219.912,37.576c-2.664,0-4.83-0.888-6.498-2.664c-1.668-1.776-2.502-4.02-2.502-6.732
		c0-2.568,0.811-4.776,2.432-6.624c1.619-1.848,3.689-2.772,6.209-2.772c2.615,0,4.709,0.852,6.281,2.556
		c1.572,1.705,2.359,3.984,2.359,6.84l-0.037,0.612h-13.932c0.096,1.776,0.689,3.18,1.781,4.212
		c1.092,1.032,2.371,1.548,3.834,1.548c2.377,0,3.984-1.008,4.824-3.024l2.953,1.224c-0.576,1.368-1.525,2.515-2.844,3.438
		C223.453,37.113,221.832,37.576,219.912,37.576z M224.664,26.056c-0.07-1.008-0.533-1.968-1.385-2.88
		c-0.854-0.912-2.119-1.368-3.799-1.368c-1.225,0-2.285,0.384-3.186,1.152c-0.9,0.769-1.518,1.8-1.854,3.096H224.664z"/>
	<path style="fill:#FFFFFF;" d="M238.775,37.576c-2.281,0-4.248-0.9-5.904-2.7s-2.484-4.032-2.484-6.696s0.828-4.896,2.484-6.696
		c1.656-1.8,3.623-2.7,5.904-2.7c1.344,0,2.551,0.288,3.617,0.864c1.068,0.576,1.867,1.296,2.395,2.16h0.145l-0.145-2.448v-8.136
		h3.313V37h-3.168v-2.448h-0.145c-0.527,0.864-1.326,1.584-2.395,2.16C241.326,37.288,240.119,37.576,238.775,37.576z
		 M239.314,34.552c1.561,0,2.887-0.576,3.979-1.728c1.092-1.152,1.639-2.7,1.639-4.644c0-1.944-0.547-3.492-1.639-4.644
		c-1.092-1.152-2.418-1.728-3.979-1.728c-1.535,0-2.855,0.582-3.959,1.746s-1.656,2.706-1.656,4.626c0,1.92,0.553,3.462,1.656,4.626
		S237.779,34.552,239.314,34.552z"/>
	<path style="fill:#FFFFFF;" d="M112.669,45.712v0.072l-4.788,5.526l5.112,7.217V58.6h-2.034l-4.194-6.012l-1.98,2.287V58.6h-1.656
		V45.712h1.656v6.642h0.072l5.67-6.642H112.669z"/>
	<path style="fill:#FFFFFF;" d="M121.417,58.6h-1.584v-1.223h-0.072c-0.252,0.42-0.636,0.775-1.151,1.07
		c-0.517,0.293-1.063,0.441-1.639,0.441c-1.104,0-1.941-0.336-2.511-1.008c-0.57-0.672-0.855-1.572-0.855-2.701V49.78h1.656v5.13
		c0,1.645,0.727,2.467,2.178,2.467c0.685,0,1.242-0.277,1.675-0.828c0.432-0.553,0.647-1.189,0.647-1.908v-4.86h1.656V58.6z"/>
	<path style="fill:#FFFFFF;" d="M126.133,58.889c-0.936,0-1.719-0.271-2.349-0.811s-0.945-1.254-0.945-2.143
		c0-0.959,0.372-1.713,1.116-2.258c0.744-0.547,1.662-0.82,2.754-0.82c0.972,0,1.77,0.182,2.394,0.541v-0.252
		c0-0.648-0.222-1.168-0.666-1.559c-0.443-0.389-0.989-0.584-1.638-0.584c-0.479,0-0.915,0.114-1.305,0.342
		c-0.391,0.229-0.657,0.541-0.801,0.936l-1.513-0.646c0.204-0.529,0.606-1.018,1.206-1.468c0.601-0.45,1.393-0.675,2.376-0.675
		c1.128,0,2.064,0.33,2.809,0.99c0.743,0.66,1.115,1.59,1.115,2.789V58.6h-1.584v-1.223h-0.071
		C128.372,58.385,127.405,58.889,126.133,58.889z M126.404,57.377c0.684,0,1.305-0.256,1.862-0.766
		c0.559-0.51,0.837-1.113,0.837-1.809c-0.468-0.385-1.17-0.576-2.105-0.576c-0.805,0-1.41,0.174-1.818,0.521
		s-0.611,0.756-0.611,1.225c0,0.432,0.186,0.773,0.558,1.025S125.923,57.377,126.404,57.377z"/>
	<path style="fill:#FFFFFF;" d="M134.215,58.6h-1.656V45.712h1.656V58.6z"/>
	<path style="fill:#FFFFFF;" d="M138.932,58.889c-0.936,0-1.719-0.271-2.349-0.811s-0.945-1.254-0.945-2.143
		c0-0.959,0.372-1.713,1.116-2.258c0.744-0.547,1.662-0.82,2.754-0.82c0.971,0,1.77,0.182,2.393,0.541v-0.252
		c0-0.648-0.221-1.168-0.666-1.559c-0.443-0.389-0.988-0.584-1.637-0.584c-0.48,0-0.916,0.114-1.305,0.342
		c-0.391,0.229-0.657,0.541-0.801,0.936l-1.513-0.646c0.204-0.529,0.606-1.018,1.206-1.468c0.601-0.45,1.393-0.675,2.375-0.675
		c1.129,0,2.064,0.33,2.809,0.99s1.115,1.59,1.115,2.789V58.6H141.9v-1.223h-0.07C141.17,58.385,140.203,58.889,138.932,58.889z
		 M139.201,57.377c0.684,0,1.305-0.256,1.863-0.766s0.836-1.113,0.836-1.809c-0.467-0.385-1.17-0.576-2.105-0.576
		c-0.805,0-1.41,0.174-1.818,0.521s-0.611,0.756-0.611,1.225c0,0.432,0.186,0.773,0.558,1.025S138.721,57.377,139.201,57.377z"/>
	<path style="fill:#FFFFFF;" d="M149.605,58.6V45.712h1.656v11.304h5.58V58.6H149.605z"/>
	<path style="fill:#FFFFFF;" d="M165.842,58.6h-1.584v-1.223h-0.072c-0.252,0.42-0.637,0.775-1.152,1.07
		c-0.516,0.293-1.063,0.441-1.639,0.441c-1.104,0-1.941-0.336-2.51-1.008c-0.57-0.672-0.855-1.572-0.855-2.701V49.78h1.656v5.13
		c0,1.645,0.727,2.467,2.178,2.467c0.684,0,1.242-0.277,1.674-0.828c0.432-0.553,0.648-1.189,0.648-1.908v-4.86h1.656V58.6z"/>
	<path style="fill:#FFFFFF;" d="M167.857,58.6V49.78h1.584v1.224h0.072c0.252-0.42,0.639-0.777,1.16-1.07
		c0.521-0.295,1.041-0.441,1.557-0.441c1.369,0,2.299,0.564,2.791,1.691c0.719-1.127,1.746-1.691,3.078-1.691
		c1.043,0,1.83,0.333,2.357,0.999s0.793,1.569,0.793,2.708v5.4h-1.656v-5.148c0-0.887-0.162-1.518-0.486-1.889
		c-0.324-0.373-0.816-0.559-1.477-0.559c-0.648,0-1.186,0.275-1.611,0.828s-0.639,1.182-0.639,1.891V58.6h-1.656v-5.148
		c0-0.887-0.162-1.518-0.486-1.889c-0.322-0.373-0.814-0.559-1.475-0.559c-0.648,0-1.186,0.275-1.611,0.828
		s-0.639,1.182-0.639,1.891V58.6H167.857z"/>
	<path style="fill:#FFFFFF;" d="M187.783,58.889c-0.672,0-1.275-0.145-1.809-0.432c-0.535-0.289-0.934-0.648-1.197-1.08h-0.072
		l0.072,1.223v3.889h-1.656V49.78h1.584v1.224h0.072c0.264-0.432,0.662-0.792,1.197-1.08c0.533-0.287,1.137-0.432,1.809-0.432
		c1.141,0,2.123,0.449,2.951,1.35s1.242,2.016,1.242,3.348s-0.414,2.449-1.242,3.35C189.906,58.438,188.924,58.889,187.783,58.889z
		 M187.514,57.377c0.768,0,1.428-0.291,1.979-0.873c0.553-0.582,0.828-1.354,0.828-2.314c0-0.959-0.275-1.73-0.828-2.313
		c-0.551-0.582-1.211-0.873-1.979-0.873c-0.781,0-1.443,0.287-1.99,0.863c-0.545,0.576-0.818,1.352-0.818,2.322
		c0,0.973,0.273,1.746,0.818,2.322C186.07,57.088,186.732,57.377,187.514,57.377z"/>
	<path style="fill:#FFFFFF;" d="M201.139,58.6h-1.584v-1.223h-0.072c-0.252,0.42-0.635,0.775-1.15,1.07
		c-0.518,0.293-1.063,0.441-1.639,0.441c-1.104,0-1.941-0.336-2.512-1.008s-0.855-1.572-0.855-2.701V49.78h1.656v5.13
		c0,1.645,0.727,2.467,2.178,2.467c0.686,0,1.242-0.277,1.676-0.828c0.432-0.553,0.646-1.189,0.646-1.908v-4.86h1.656V58.6z"/>
	<path style="fill:#FFFFFF;" d="M204.811,58.6h-1.656V49.78h1.584v1.44h0.072c0.168-0.48,0.514-0.877,1.035-1.188
		s1.029-0.468,1.521-0.468s0.906,0.072,1.242,0.216l-0.631,1.548c-0.215-0.084-0.51-0.127-0.881-0.127
		c-0.602,0-1.133,0.238-1.594,0.713c-0.463,0.473-0.693,1.094-0.693,1.861V58.6z"/>
</g>
</svg>
